<mxfile host="app.diagrams.net" agent="Mozilla/5.0 (Macintosh; Intel Mac OS X 10_15_7) AppleWebKit/605.1.15 (KHTML, like Gecko) Version/18.3.1 Safari/605.1.15" version="26.2.13">
  <diagram id="I1HLNc8nkcFqUEuaWlnT" name="Page-1">
    <mxGraphModel dx="2027" dy="1279" grid="0" gridSize="10" guides="1" tooltips="1" connect="1" arrows="1" fold="1" page="0" pageScale="1" pageWidth="850" pageHeight="1100" math="0" shadow="0">
      <root>
        <mxCell id="0" />
        <mxCell id="1" parent="0" />
        <mxCell id="R0wREyc5kJ4uy81WOl9y-2" value="" style="html=1;verticalLabelPosition=bottom;align=center;labelBackgroundColor=#ffffff;verticalAlign=top;strokeWidth=2;strokeColor=#0080F0;shadow=0;dashed=0;shape=mxgraph.ios7.icons.user;direction=east;" vertex="1" parent="1">
          <mxGeometry x="-733" y="-233.4" width="90" height="90" as="geometry" />
        </mxCell>
        <mxCell id="R0wREyc5kJ4uy81WOl9y-4" value="" style="verticalLabelPosition=bottom;aspect=fixed;html=1;shape=mxgraph.salesforce.web;rotation=0;" vertex="1" parent="1">
          <mxGeometry x="-507" y="-243.7" width="140" height="110.6" as="geometry" />
        </mxCell>
        <mxCell id="R0wREyc5kJ4uy81WOl9y-24" style="edgeStyle=none;curved=1;rounded=0;orthogonalLoop=1;jettySize=auto;html=1;entryX=0.5;entryY=0;entryDx=0;entryDy=0;fontSize=12;startSize=8;endSize=8;" edge="1" parent="1" source="R0wREyc5kJ4uy81WOl9y-5" target="R0wREyc5kJ4uy81WOl9y-13">
          <mxGeometry relative="1" as="geometry">
            <Array as="points">
              <mxPoint x="-90" y="-88" />
            </Array>
          </mxGeometry>
        </mxCell>
        <mxCell id="R0wREyc5kJ4uy81WOl9y-25" style="edgeStyle=none;curved=1;rounded=0;orthogonalLoop=1;jettySize=auto;html=1;entryX=0.5;entryY=0;entryDx=0;entryDy=0;fontSize=12;startSize=8;endSize=8;" edge="1" parent="1" source="R0wREyc5kJ4uy81WOl9y-5" target="R0wREyc5kJ4uy81WOl9y-12">
          <mxGeometry relative="1" as="geometry" />
        </mxCell>
        <mxCell id="R0wREyc5kJ4uy81WOl9y-5" value="" style="points=[];aspect=fixed;html=1;align=center;shadow=0;dashed=0;fillColor=#FF6A00;strokeColor=none;shape=mxgraph.alibaba_cloud.cwh_cloud_web_hosting;" vertex="1" parent="1">
          <mxGeometry x="-198" y="-235.55" width="95.62" height="87.55" as="geometry" />
        </mxCell>
        <mxCell id="R0wREyc5kJ4uy81WOl9y-8" value="" style="edgeStyle=none;orthogonalLoop=1;jettySize=auto;html=1;rounded=0;fontSize=12;startSize=8;endSize=8;curved=1;" edge="1" parent="1">
          <mxGeometry width="140" relative="1" as="geometry">
            <mxPoint x="-628" y="-189" as="sourcePoint" />
            <mxPoint x="-516" y="-189" as="targetPoint" />
            <Array as="points" />
          </mxGeometry>
        </mxCell>
        <mxCell id="R0wREyc5kJ4uy81WOl9y-10" value="" style="edgeStyle=none;orthogonalLoop=1;jettySize=auto;html=1;endArrow=classic;startArrow=classic;endSize=8;startSize=8;rounded=0;fontSize=12;curved=1;" edge="1" parent="1">
          <mxGeometry width="140" relative="1" as="geometry">
            <mxPoint x="-359" y="-185" as="sourcePoint" />
            <mxPoint x="-219" y="-185" as="targetPoint" />
            <Array as="points" />
          </mxGeometry>
        </mxCell>
        <mxCell id="R0wREyc5kJ4uy81WOl9y-12" value="Home" style="whiteSpace=wrap;html=1;" vertex="1" parent="1">
          <mxGeometry x="-292" y="-69" width="120" height="60" as="geometry" />
        </mxCell>
        <mxCell id="R0wREyc5kJ4uy81WOl9y-13" value="Project" style="whiteSpace=wrap;html=1;" vertex="1" parent="1">
          <mxGeometry x="-138" y="-73" width="120" height="60" as="geometry" />
        </mxCell>
        <mxCell id="R0wREyc5kJ4uy81WOl9y-19" value="Picture&lt;div&gt;Labor desc.&lt;/div&gt;&lt;div&gt;Linkedin, github, apple account&amp;nbsp;&lt;/div&gt;&lt;div&gt;Cv button&lt;/div&gt;&lt;div&gt;Projects&lt;/div&gt;&lt;div&gt;Contact ( email)&lt;/div&gt;&lt;div&gt;&lt;br&gt;&lt;/div&gt;" style="whiteSpace=wrap;html=1;" vertex="1" parent="1">
          <mxGeometry x="-310" y="40" width="161" height="155" as="geometry" />
        </mxCell>
        <mxCell id="R0wREyc5kJ4uy81WOl9y-21" value="" style="edgeStyle=none;orthogonalLoop=1;jettySize=auto;html=1;rounded=0;fontSize=12;startSize=8;endSize=8;curved=1;entryX=0.5;entryY=0;entryDx=0;entryDy=0;exitX=0.5;exitY=1;exitDx=0;exitDy=0;" edge="1" parent="1" source="R0wREyc5kJ4uy81WOl9y-12" target="R0wREyc5kJ4uy81WOl9y-19">
          <mxGeometry width="140" relative="1" as="geometry">
            <mxPoint x="-231" y="36" as="sourcePoint" />
            <mxPoint x="-111" y="132" as="targetPoint" />
            <Array as="points" />
          </mxGeometry>
        </mxCell>
      </root>
    </mxGraphModel>
  </diagram>
</mxfile>
